<svg width="250" height="250" viewBox="0 0 250 250" fill="none" xmlns="http://www.w3.org/2000/svg">
<path d="M99.04 75.76V149.52C99.04 159.333 96.2667 166.8 90.72 171.92C85.1733 177.04 78.1867 179.6 69.76 179.6C61.44 179.6 54.9867 178.107 50.4 175.12C45.8133 172.133 43.52 168.773 43.52 165.04C43.52 161.2 44.5867 158.213 46.72 156.08C52.2667 160.667 58.3467 162.96 64.96 162.96C69.12 162.96 72.3733 161.893 74.72 159.76C77.1733 157.627 78.4 154.48 78.4 150.32V75.28C78.4 70.5867 76.8 67.5467 73.6 66.16C76.9067 62 81.0133 59.92 85.92 59.92C94.6667 59.92 99.04 65.2 99.04 75.76ZM133.025 61.36H192.225C200.865 61.36 205.185 64.8267 205.185 71.76C205.185 74.4267 204.065 77.0933 201.825 79.76C198.092 77.9467 192.812 77.04 185.985 77.04H169.825V164.08C169.825 168.773 171.425 171.867 174.625 173.36C171.318 177.52 167.212 179.6 162.305 179.6C153.558 179.6 149.185 174.267 149.185 163.6V77.04H126.785C118.145 77.04 113.825 73.6267 113.825 66.8C113.825 64.0267 114.998 61.36 117.345 58.8C120.972 60.5067 126.198 61.36 133.025 61.36Z" fill="#6517BE"/>
<rect x="3.5" y="3.5" width="243" height="243" rx="31.5" stroke="#6517BE" stroke-width="7"/>
</svg>
