<svg width="275" height="250" viewBox="0 0 275 250" fill="none" xmlns="http://www.w3.org/2000/svg">
<path d="M112.04 75.76V149.52C112.04 159.333 109.267 166.8 103.72 171.92C98.1733 177.04 91.1867 179.6 82.76 179.6C74.44 179.6 67.9867 178.107 63.4 175.12C58.8133 172.133 56.52 168.773 56.52 165.04C56.52 161.2 57.5867 158.213 59.72 156.08C65.2667 160.667 71.3467 162.96 77.96 162.96C82.12 162.96 85.3733 161.893 87.72 159.76C90.1733 157.627 91.4 154.48 91.4 150.32V75.28C91.4 70.5867 89.8 67.5467 86.6 66.16C89.9067 62 94.0133 59.92 98.92 59.92C107.667 59.92 112.04 65.2 112.04 75.76ZM146.025 61.36H205.225C213.865 61.36 218.185 64.8267 218.185 71.76C218.185 74.4267 217.065 77.0933 214.825 79.76C211.092 77.9467 205.812 77.04 198.985 77.04H182.825V164.08C182.825 168.773 184.425 171.867 187.625 173.36C184.318 177.52 180.212 179.6 175.305 179.6C166.558 179.6 162.185 174.267 162.185 163.6V77.04H139.785C131.145 77.04 126.825 73.6267 126.825 66.8C126.825 64.0267 127.998 61.36 130.345 58.8C133.972 60.5067 139.198 61.36 146.025 61.36Z" fill="#6517BE"/>
<rect x="9" y="9" width="257" height="232" rx="26" stroke="#6517BE" stroke-width="18"/>
</svg>
