<svg xmlns="http://www.w3.org/2000/svg" viewBox="0 0 1440 320"><path fill="#6517BE" fill-opacity="1" d="M0,32L34.3,74.7C68.6,117,137,203,206,234.7C274.3,267,343,245,411,250.7C480,256,549,288,617,261.3C685.7,235,754,149,823,149.3C891.4,149,960,235,1029,224C1097.1,213,1166,107,1234,85.3C1302.9,64,1371,128,1406,160L1440,192L1440,0L1405.7,0C1371.4,0,1303,0,1234,0C1165.7,0,1097,0,1029,0C960,0,891,0,823,0C754.3,0,686,0,617,0C548.6,0,480,0,411,0C342.9,0,274,0,206,0C137.1,0,69,0,34,0L0,0Z"></path></svg>